<svg id="Layer_3" enable-background="new 0 0 64 64" height="512" viewBox="0 0 64 64" width="512" xmlns="http://www.w3.org/2000/svg"><path d="m47 5.101v-3.101c0-.553-.447-1-1-1h-28c-.553 0-1 .447-1 1v3.101c-2.279.465-4 2.485-4 4.899v44c0 1.641.806 3.088 2.031 4h-.031v4c0 .553.447 1 1 1h32c.553 0 1-.447 1-1v-4h-.031c1.225-.912 2.031-2.359 2.031-4v-44c0-2.414-1.721-4.434-4-4.899zm-2-2.101v2h-26v-2zm-27 4h28c1.654 0 3 1.346 3 3v1h-34v-1c0-1.654 1.346-3 3-3zm31 6v38h-34v-38zm-2 48h-30v-2.101c.323.066.658.101 1 .101h28c.342 0 .677-.035 1-.101zm-1-4h-28c-1.654 0-3-1.346-3-3v-1h34v1c0 1.654-1.346 3-3 3z"/><path d="m23.195 33.594c.189.256.488.406.805.406h4.447l-4.357 9.586c-.2.44-.057.961.341 1.236.172.119.371.178.569.178.258 0 .514-.1.707-.293l15-15c.286-.286.372-.716.217-1.09-.154-.374-.52-.617-.924-.617h-6.132l4.964-7.445c.204-.307.224-.701.05-1.026s-.513-.529-.882-.529h-10c-.439 0-.827.286-.956.706l-4 13c-.093.303-.037.633.151.888zm5.543-12.594h7.394l-4.964 7.445c-.204.307-.224.701-.05 1.026s.513.529.882.529h5.586l-9.394 9.394 2.718-5.979c.141-.31.114-.67-.069-.955-.185-.287-.501-.46-.841-.46h-4.646z"/></svg>